# xmcd
#
# Track frame offsets: 
#        150
#        16050
#        34350
#        55500
#        74100
#        88200
#        106950
#        123900
#        142500
#        160650
#        178350
#        194400
#
# Disc length: 2820 seconds
#
# Revision: 0
# Processed by: cddbd v1.5.1PL2 Copyright (c) Steve Scherf et al.
# Submitted via: ExactAudioCopy v0.95b3
#
DISCID=a10b020c
DTITLE=Joy Siriluk Phongchoke - Queen Isan
DYEAR=2005
DGENRE=Country
TTITLE0=Huk ai done leaw
TTITLE1=Toke jai
TTITLE2=Seang tah noi
TTITLE3=Klome
TTITLE4=Chor fah fak fan
TTITLE5=Dara rai worn fan
TTITLE6=Sao dum rum pun
TTITLE7=Nam tar sao mhor lum
TTITLE8=Kid hord mae
TTITLE9=Hum horn
TTITLE10=Sao lum plern
TTITLE11=Nam kum kong ai
EXTD=Original TV serie soundtrack
EXTT0=
EXTT1=
EXTT2=
EXTT3=
EXTT4=
EXTT5=
EXTT6=
EXTT7=
EXTT8=
EXTT9=
EXTT10=
EXTT11=
PLAYORDER=
